<?xml version="1.0" encoding="iso-8859-1"?>
<!-- Generator: Adobe Illustrator 17.1.0, SVG Export Plug-In . SVG Version: 6.00 Build 0)  -->
<!DOCTYPE svg PUBLIC "-//W3C//DTD SVG 1.1//EN" "http://www.w3.org/Graphics/SVG/1.1/DTD/svg11.dtd">
<svg version="1.1" id="Capa_1" xmlns="http://www.w3.org/2000/svg" xmlns:xlink="http://www.w3.org/1999/xlink" x="0px" y="0px"
	 viewBox="0 0 278.923 278.923" style="enable-background:new 0 0 278.923 278.923;" xml:space="preserve">
<g>
	<path d="M263.882,87.745c-2.678-7.841-11.205-12.022-19.043-9.348l-85.813,29.307l-41.753,1.872l-13.057-35.692
		c-2.383-6.515-8.811-10.362-15.407-9.775l-8.846-8.846c1.51-4.518,1.624-9.82,0.221-15.433
		c-2.009-8.036-6.917-16.264-13.818-23.165C57.085,7.382,45.519,1.841,35.43,1.841c-6.172,0-11.476,2.042-15.34,5.905
		c-10.474,10.475-6.557,30.801,8.917,46.276c9.282,9.281,20.848,14.822,30.938,14.822c3.753,0,7.178-0.766,10.161-2.226l6.328,6.328
		c-1.527,3.433-1.782,7.437-0.39,11.244l16.833,46.017c2.17,5.934,7.812,9.847,14.082,9.847c0.225,0,0.451-0.005,0.677-0.015
		l30.552-1.37c0,0-0.176,49.425-0.053,51.705c-13.006,20.805-28.551,39.217-47.788,54.49l-9.207,7.311
		c-6.488,5.151-7.571,14.587-2.42,21.074c2.961,3.73,7.338,5.674,11.757,5.674c3.268,0,6.56-1.063,9.317-3.254l9.207-7.31
		c21.691-17.221,40.131-37.802,54.875-61.202c17.945,15.327,30.416,35.959,35.634,59.366l0.108,0.485
		c1.561,6.984,7.755,11.733,14.626,11.733c1.082,0,2.183-0.118,3.283-0.363c8.085-1.806,13.176-9.824,11.37-17.909l-0.024-0.479
		c-6.666-29.901-22.519-56.253-45.519-75.795v-49.601c0-1.14-0.17-2.259-0.333-3.353l71.556-24.452
		C262.416,104.111,266.559,95.585,263.882,87.745z M59.944,53.845c-6.015,0-13.995-4.094-20.33-10.429
		c-10.371-10.372-12.209-21.771-8.917-25.063c1.25-1.25,3.263-1.513,4.732-1.513c6.015,0,13.994,4.094,20.329,10.43
		c4.936,4.935,8.534,10.838,9.874,16.197c0.99,3.962,0.633,7.275-0.957,8.865C63.426,53.583,61.413,53.845,59.944,53.845z
		 M221.829,12.045l20.17-11.573c2.324-1.342,5.354,0.335,5.354,3.019v27.993c0,2.684-3.03,4.361-5.354,3.019l-20.107-11.573
		C217.702,20.512,217.639,14.464,221.829,12.045z M136.234,73.105c0-13.159,10.668-23.827,23.827-23.827
		s23.827,10.668,23.827,23.827s-10.668,23.827-23.827,23.827S136.234,86.264,136.234,73.105z"/>
</g>
<g>
</g>
<g>
</g>
<g>
</g>
<g>
</g>
<g>
</g>
<g>
</g>
<g>
</g>
<g>
</g>
<g>
</g>
<g>
</g>
<g>
</g>
<g>
</g>
<g>
</g>
<g>
</g>
<g>
</g>
</svg>
