<?xml version="1.0" encoding="iso-8859-1"?>
<!-- Generator: Adobe Illustrator 17.1.0, SVG Export Plug-In . SVG Version: 6.00 Build 0)  -->
<!DOCTYPE svg PUBLIC "-//W3C//DTD SVG 1.1//EN" "http://www.w3.org/Graphics/SVG/1.1/DTD/svg11.dtd">
<svg version="1.1" id="Capa_1" xmlns="http://www.w3.org/2000/svg" xmlns:xlink="http://www.w3.org/1999/xlink" x="0px" y="0px"
	 viewBox="0 0 294.125 294.125" style="enable-background:new 0 0 294.125 294.125;" xml:space="preserve">
<g>
	<path d="M219.568,136.676c-2.108,6.266-7.951,10.222-14.216,10.222c-1.586,0-3.198-0.253-4.784-0.786l-11.768-3.958
		c-16.072-5.406-31.534-12.277-46.252-20.517l7.161,41.895c5.547,41.005-3.894,82.642-26.581,117.242l-1.283,1.959
		c-2.88,4.394-7.672,6.779-12.56,6.779c-2.821,0-5.673-0.795-8.209-2.456c-6.929-4.541-8.864-13.839-4.323-20.769l1.285-1.961
		c13.912-21.217,21.783-45.638,23.038-70.668c-14.7,7.95-31.21,12.117-47.881,12.117c-11.235,0-22.541-1.89-33.411-5.781
		c-7.8-2.792-11.859-11.379-9.066-19.178c2.792-7.8,11.377-11.861,19.178-9.066c18.525,6.633,38.498,5.001,55.512-3.856
		c-0.268-1.338-0.543-2.714-0.806-4.131l-11.831-63.702c-0.044-0.236-0.077-0.472-0.113-0.708l-3.938-0.277
		c-25.724-1.811-49.494-13.269-66.935-32.263c-0.334-0.364-0.644-0.741-0.935-1.128C9.035,63.816,0,53.587,0,41.245
		c0-13.669,11.081-24.75,24.75-24.75S49.5,27.576,49.5,41.245c0,3.233-0.626,6.318-1.754,9.148
		c11.772,10.996,26.868,17.616,43.081,18.758l26.119,1.839c0.13,0.009,0.255,0.034,0.384,0.047c0.325,0.031,0.649,0.066,0.972,0.118
		c0.188,0.03,0.372,0.071,0.558,0.108c0.293,0.059,0.586,0.121,0.876,0.198c0.21,0.056,0.416,0.121,0.622,0.185
		c0.255,0.08,0.51,0.16,0.762,0.254c0.232,0.086,0.458,0.183,0.685,0.281c0.217,0.094,0.434,0.186,0.648,0.29
		c0.252,0.123,0.496,0.258,0.74,0.394c0.182,0.102,0.364,0.2,0.543,0.311c0.263,0.162,0.516,0.337,0.768,0.514
		c0.117,0.082,0.238,0.151,0.353,0.237l5.801,4.324c20.588,15.35,43.367,27.282,67.705,35.468l11.769,3.958
		C217.984,120.318,222.209,128.824,219.568,136.676z M294.087,33.296c-0.002,0.018-0.003,0.037-0.005,0.055
		c-0.058,0.584-0.177,1.171-0.379,1.749l-17.125,48.875c-1.082,3.088-3.98,5.021-7.078,5.021c-0.822,0-1.659-0.137-2.48-0.424
		c-3.909-1.37-5.968-5.649-4.598-9.559l2.109-6.02h-20.364v9c0,4.143-3.357,7.5-7.5,7.5s-7.5-3.357-7.5-7.5v-9h-19.219l2.122,5.998
		c1.382,3.905-0.664,8.19-4.568,9.572c-0.827,0.293-1.672,0.432-2.502,0.432c-3.089,0-5.981-1.922-7.07-5l-16.901-47.764
		c-0.651-1.108-1.03-2.396-1.029-3.779c0.005-4.139,3.362-7.459,7.5-7.459c0.003,0,0.006,0,0.01,0l99.125,0.125
		c0.039,0,0.078,0.005,0.117,0.006c0.131,0.002,0.262,0.011,0.393,0.02c0.13,0.009,0.26,0.018,0.389,0.033
		c0.089,0.011,0.177,0.026,0.266,0.04c0.179,0.028,0.356,0.059,0.531,0.099c0.034,0.008,0.068,0.017,0.102,0.026
		c2.905,0.708,5.135,3.08,5.596,6.07c0.002,0.011,0.003,0.023,0.005,0.034c0.028,0.189,0.051,0.38,0.065,0.574
		c0.01,0.118,0.014,0.237,0.017,0.355c0.002,0.064,0.01,0.126,0.01,0.19c0,0.035-0.005,0.068-0.005,0.103
		C294.118,32.878,294.106,33.086,294.087,33.296z M229.167,57.995V39.959l-31.082-0.02l6.556,18.056H229.167z M269.786,57.995
		l6.143-18.007l-31.762-0.02v18.027H269.786z M132.418,60.615c15.277-3.389,24.914-18.521,21.525-33.799
		S135.422,1.902,120.145,5.291S95.23,23.812,98.62,39.09C102.009,54.367,117.141,64.004,132.418,60.615z"/>
</g>
<g>
</g>
<g>
</g>
<g>
</g>
<g>
</g>
<g>
</g>
<g>
</g>
<g>
</g>
<g>
</g>
<g>
</g>
<g>
</g>
<g>
</g>
<g>
</g>
<g>
</g>
<g>
</g>
<g>
</g>
</svg>
