<?xml version="1.0" encoding="iso-8859-1"?>
<!-- Generator: Adobe Illustrator 17.1.0, SVG Export Plug-In . SVG Version: 6.00 Build 0)  -->
<!DOCTYPE svg PUBLIC "-//W3C//DTD SVG 1.1//EN" "http://www.w3.org/Graphics/SVG/1.1/DTD/svg11.dtd">
<svg version="1.1" id="Capa_1" xmlns="http://www.w3.org/2000/svg" xmlns:xlink="http://www.w3.org/1999/xlink" x="0px" y="0px"
	 viewBox="0 0 285.404 285.404" style="enable-background:new 0 0 285.404 285.404;" xml:space="preserve">
<g>
	<path d="M247.953,72.425c0,12.075-9.789,21.864-21.864,21.864c-4.43,0-8.55-1.321-11.994-3.586l-1.066,0.28
		c-20.792,5.455-42.137,8.788-63.598,9.953c8.727,7.684,19.522,12.758,31.013,14.564c4.009-4.604,9.908-7.519,16.492-7.519
		c12.075,0,21.864,9.789,21.864,21.864c0,12.075-9.789,21.864-21.864,21.864c-5.731,0-10.945-2.208-14.844-5.816
		c-15.977-1.385-31.284-6.995-44.33-16.07c0,0-6.421,50.704-7.387,52.721c26.822,21.838,47.215,48.835,61.428,80.476l0.233,0.52
		c3.393,7.558,0.016,16.435-7.542,19.827c-1.994,0.896-4.081,1.319-6.134,1.319c-5.728,0-11.196-3.298-13.693-8.861l-0.231-0.516
		c-11.622-25.87-28.865-48.83-50.313-67.224c-5.428,26.208-20.181,49.882-42.138,66.394l-10.518,7.909
		c-2.701,2.031-5.866,3.013-9.004,3.013c-4.555,0-9.053-2.065-12-5.985c-4.979-6.621-3.648-16.025,2.973-21.004l10.518-7.909
		c21.791-16.388,33.892-42.424,32.368-69.647l-0.029-0.516c-0.009-0.16,0.001-0.316-0.003-0.475
		c-0.008-0.312-0.017-0.624-0.005-0.938c0.008-0.213-0.136-6.695,0.457-10.171l10.967-76.754
		c1.492-10.441,9.923-18.172,19.965-19.199c1.682-0.699,3.514-1.114,5.445-1.153l14.872-0.301
		c22.739-0.458,45.424-3.616,67.425-9.388l1.729-0.454c3.778-6.544,10.844-10.951,18.943-10.951
		C238.164,50.56,247.953,60.349,247.953,72.425z M141.402,63.674c17.583,0,31.837-14.254,31.837-31.837
		C173.239,14.254,158.985,0,141.402,0c-17.583,0-31.837,14.254-31.837,31.837C109.566,49.42,123.819,63.674,141.402,63.674z"/>
</g>
<g>
</g>
<g>
</g>
<g>
</g>
<g>
</g>
<g>
</g>
<g>
</g>
<g>
</g>
<g>
</g>
<g>
</g>
<g>
</g>
<g>
</g>
<g>
</g>
<g>
</g>
<g>
</g>
<g>
</g>
</svg>
