<?xml version="1.0" encoding="iso-8859-1"?>
<!-- Generator: Adobe Illustrator 17.1.0, SVG Export Plug-In . SVG Version: 6.00 Build 0)  -->
<!DOCTYPE svg PUBLIC "-//W3C//DTD SVG 1.1//EN" "http://www.w3.org/Graphics/SVG/1.1/DTD/svg11.dtd">
<svg version="1.1" id="Capa_1" xmlns="http://www.w3.org/2000/svg" xmlns:xlink="http://www.w3.org/1999/xlink" x="0px" y="0px"
	 viewBox="0 0 258.786 258.786" style="enable-background:new 0 0 258.786 258.786;" xml:space="preserve">
<g>
	<path d="M241.523,41.153c-5.006-3.034-10.685-4.639-16.424-4.639c-17.466,0-31.439,13.674-31.813,31.129l-0.606,28.286
		c-22.568-1.057-44.414-7.971-63.522-20.189l-11.639-7.442c-3.085-1.672-6.048-2.442-6.409-2.561
		c-12.386-4.08-24.632,0.996-29.247,12.534l-27.56,68.899c-1.072,2.678-2.806,9.262-2.841,13.961
		c-0.263,26.016-13.363,50.133-35.044,64.513l-7.747,5.138c-6.904,4.579-8.789,13.888-4.211,20.791
		c4.579,6.905,13.887,8.791,20.791,4.211l7.748-5.139c22.528-14.942,38.357-37.486,44.989-63.034
		c21.47,16.504,39.902,36.327,54.942,59.114l3.512,5.32c2.884,4.37,7.661,6.739,12.532,6.739c2.837,0,5.705-0.804,8.249-2.483
		c6.914-4.563,8.819-13.868,4.256-20.781l-3.511-5.32c-16.917-25.632-37.661-47.917-61.825-66.465l10.667-26.667
		c17.396,13.536,37.093,24.145,57.987,31.109l4.739,1.58c1.574,0.525,3.173,0.774,4.746,0.774c6.279,0,12.133-3.975,14.228-10.26
		c1.6-4.798,0.63-9.621-2.149-13.412l12.468-20.36h2.659c8.284,0,15-6.921,15-15.205c0-0.595-0.044-1.281-0.111-1.858l23.968-13.214
		c10.067-5.528,16.226-15.711,16.472-27.195C257.062,57.544,251.346,47.107,241.523,41.153z M119.635,105.01
		c19.17,10.988,40.31,17.849,62.199,20.18l-8.587,14.164c-20.039-6.832-38.749-17.62-54.75-31.499L119.635,105.01z M233.125,83.023
		l-25.463,13.984l0.621-29.044c0.221-10.296,8.724-16.449,16.816-16.449c3.04,0,5.949,0.829,8.647,2.465
		c5.185,3.144,8.203,8.64,8.073,14.702S238.44,80.105,233.125,83.023z M99.178,27.493C99.178,12.309,111.487,0,126.672,0
		c15.184,0,27.493,12.309,27.493,27.493s-12.309,27.493-27.493,27.493C111.487,54.986,99.178,42.677,99.178,27.493z"/>
</g>
<g>
</g>
<g>
</g>
<g>
</g>
<g>
</g>
<g>
</g>
<g>
</g>
<g>
</g>
<g>
</g>
<g>
</g>
<g>
</g>
<g>
</g>
<g>
</g>
<g>
</g>
<g>
</g>
<g>
</g>
</svg>
