<?xml version="1.0" encoding="iso-8859-1"?>
<!-- Generator: Adobe Illustrator 16.0.0, SVG Export Plug-In . SVG Version: 6.00 Build 0)  -->
<!DOCTYPE svg PUBLIC "-//W3C//DTD SVG 1.1//EN" "http://www.w3.org/Graphics/SVG/1.1/DTD/svg11.dtd">
<svg version="1.1" id="Capa_1" xmlns="http://www.w3.org/2000/svg" xmlns:xlink="http://www.w3.org/1999/xlink" x="0px" y="0px"
	 width="514.962px" height="514.962px" viewBox="0 0 514.962 514.962" style="enable-background:new 0 0 514.962 514.962;"
	 xml:space="preserve">
<g>
	<g>
		<path d="M411.474,47.191c0-26-21.286-47.191-47.401-47.191c-25.98,0-47.124,21.2-47.124,47.191
			c0,26.163,21.144,47.258,47.124,47.258C390.188,94.449,411.474,73.363,411.474,47.191z"/>
		<path d="M477.302,209.313h-82.533l-37.973-85.881c-0.459-1.434-1.291-3.271-1.77-4.112c-0.144-0.268-0.239-0.411-0.239-0.536
			l-0.669-1.568l-0.144,0.134c-7.057-14.927-21.783-25.599-39.244-26.249c-3.414-0.201-6.493,0.134-9.572,0.784L97.805,140.588
			c-12.546,2.955-20.416,15.319-17.404,27.951c2.821,12.575,15.128,20.292,27.693,17.461l138.436-32.904L141.343,326.607H64.757
			h-0.125H41.73c1.3-3.826,0.995-8.166-1.32-11.848c-4.131-6.607-12.708-8.568-19.182-4.457c-6.598,4.064-8.549,12.643-4.504,19.25
			c3.146,4.963,8.893,7.248,14.372,6.244l2.984,11.742c-1.128,0.354-2.238,0.803-3.309,1.453
			c-6.417,4.055-8.444,12.633-4.313,19.107c3.137,5.105,8.97,7.371,14.449,6.281l2.964,11.639c-1.147,0.354-2.276,0.793-3.337,1.463
			c-6.675,4.055-8.559,12.613-4.514,19.24c3.156,5.039,9.151,7.305,14.679,6.176l2.974,11.705c-1.195,0.334-2.362,0.775-3.461,1.434
			c-6.598,4.189-8.568,12.758-4.523,19.24c4.073,6.607,12.642,8.568,19.326,4.514c5.24-3.309,7.478-9.678,5.891-15.463
			c0.382-0.191,0.803-0.199,1.176-0.439c3.089-1.77,5.04-4.906,5.642-8.119l14.927-45.43l0.526-1.818c0,0,68.84-0.258,69.356-0.258
			c13.828,0,25.676-3.807,32.675-15.377l31.872-52.812l71.03,70.686l-27.014,106.326c-2.544-0.729-5.308-0.775-8.004,0.037
			c-7.411,2.42-11.523,10.289-9.18,17.615c2.496,7.449,10.347,11.379,17.605,9.16c6.33-2.084,10.26-8.234,9.734-14.602h11.905
			c-0.172,1.826,0.01,3.719,0.612,5.574c2.361,7.449,10.279,11.523,17.547,9.17c6.378-2.123,10.261-8.328,9.62-14.744h12.058
			c-0.21,1.893-0.057,3.873,0.574,5.832c2.353,7.336,10.203,11.447,17.614,9.037c6.388-1.961,10.337-8.301,9.505-14.879h11.57
			c0.211,0,0.383-0.115,0.593-0.125c-0.268,2.008-0.162,4.104,0.526,6.148c2.419,7.268,10.279,11.342,17.538,8.98
			c7.334-2.363,11.389-10.098,9.026-17.414c-2.123-6.742-8.778-10.596-15.453-9.609c0-0.01,0.01-0.02,0.01-0.029
			c0-5.24-3.28-8.912-7.334-11.121l-44.963-24.883l21.602-85.211c0,0,5.374-18.006-11.666-34.615l-58.111-58.197
			c0,0,31.087-51.055,50.987-83.845l23.179,52.489c1.817,4.198,4.925,7.602,8.568,9.954c0,0.125,0.277,0.125,0.277,0.335
			c3.662,2.333,8.052,3.777,12.766,3.777h97.04c12.958,0.144,23.371-10.461,23.495-23.237
			C500.463,219.717,490.078,209.505,477.302,209.313z"/>
	</g>
</g>
<g>
</g>
<g>
</g>
<g>
</g>
<g>
</g>
<g>
</g>
<g>
</g>
<g>
</g>
<g>
</g>
<g>
</g>
<g>
</g>
<g>
</g>
<g>
</g>
<g>
</g>
<g>
</g>
<g>
</g>
</svg>
