<?xml version="1.0" encoding="iso-8859-1"?>
<!-- Generator: Adobe Illustrator 17.1.0, SVG Export Plug-In . SVG Version: 6.00 Build 0)  -->
<!DOCTYPE svg PUBLIC "-//W3C//DTD SVG 1.1//EN" "http://www.w3.org/Graphics/SVG/1.1/DTD/svg11.dtd">
<svg version="1.1" id="Capa_1" xmlns="http://www.w3.org/2000/svg" xmlns:xlink="http://www.w3.org/1999/xlink" x="0px" y="0px"
	 viewBox="0 0 310.271 310.271" style="enable-background:new 0 0 310.271 310.271;" xml:space="preserve">
<path d="M147.539,270.444c-5.446,17.81-22.086,31.077-49.458,39.433c-0.875,0.267-1.761,0.395-2.631,0.395
	c-3.855,0-7.421-2.496-8.604-6.375c-1.452-4.754,1.226-9.784,5.979-11.236c21.296-6.501,33.913-15.747,37.501-27.481
	c1.454-4.753,6.482-7.43,11.238-5.975C146.317,260.659,148.993,265.69,147.539,270.444z M103.616,261.46c0-4.971-4.029-9-9-9
	c-19.226,0-34.867-15.641-34.867-34.867v-86.546c0-3.627,0.196-7.281,0.583-10.86c0.533-4.942-3.04-9.381-7.981-9.915
	c-4.948-0.535-9.381,3.04-9.915,7.981c-0.455,4.218-0.687,8.523-0.687,12.793v86.546c0,29.151,23.716,52.867,52.867,52.867
	C99.587,270.46,103.616,266.431,103.616,261.46z M160.848,11.95c-15.215,0-30.062,2.867-44.128,8.52
	c-4.611,1.854-6.848,7.095-4.994,11.707s7.094,6.849,11.707,4.994c11.922-4.792,24.511-7.221,37.417-7.221
	c55.746,0,101.099,45.352,101.099,101.098v86.546c0,19.226-15.642,34.867-34.868,34.867c-4.971,0-9,4.029-9,9s4.029,9,9,9
	c29.151,0,52.868-23.716,52.868-52.867v-86.546C279.948,65.376,226.519,11.95,160.848,11.95z M54.031,79.467
	c-2.676,4.189-1.449,9.754,2.74,12.43c1.501,0.959,3.178,1.417,4.836,1.417c2.97,0,5.876-1.468,7.594-4.156l24.054-37.655
	c1.77-2.771,1.888-6.286,0.309-9.169c-1.58-2.883-4.605-4.676-7.894-4.676H55.486l14.816-23.916
	c2.618-4.225,1.314-9.772-2.91-12.391c-4.227-2.618-9.772-1.314-12.391,2.911L31.673,41.917c-1.72,2.776-1.802,6.265-0.213,9.118
	c1.589,2.853,4.598,4.622,7.863,4.622h29.918L54.031,79.467z M236.512,153.49c0-13.973-2.229-26.855-6.629-38.293
	c-0.123-0.341-0.269-0.677-0.437-1.006c-0.575-1.138-1.369-2.109-2.31-2.88c-0.754-0.622-1.596-1.106-2.485-1.447
	c-1.593-0.614-3.364-0.778-5.109-0.403c-0.683,0.146-1.356,0.373-2.005,0.684c-0.517,0.246-0.999,0.536-1.446,0.864
	c-13.147,9.097-33.19,14.336-55.038,14.379c-4.971,0.01-8.992,4.047-8.982,9.018c0.01,4.965,4.037,8.982,9,8.982
	c0.005,0,0.012,0,0.018,0c20.479-0.041,39.888-4.209,55.067-11.65c1.566,6.743,2.356,14.022,2.356,21.753
	c0,27.148-13.905,52.119-36.29,65.167c-8.716,5.081-15.309,7.353-21.374,7.366c-6.064-0.014-12.656-2.286-21.371-7.367
	c-22.386-13.047-36.292-38.018-36.292-65.167c0-7.724,0.789-14.997,2.353-21.737c1.663,0.819,3.378,1.599,5.14,2.336l0.904,0.38
	c6.034,2.536,10.392,4.37,15.411,2.229c4.925-2.101,6.609-6.486,8.56-11.564c0.414-1.078,0.886-2.305,1.445-3.692
	c2.384-5.905,5.003-13.178,5.963-16.557c1.358-4.781-1.417-9.758-6.198-11.117c-4.782-1.357-9.759,1.417-11.116,6.199
	c-0.699,2.462-3.012,8.971-5.34,14.737c-0.498,1.233-0.931,2.349-1.317,3.353c-0.146-0.061-0.289-0.122-0.433-0.182l-0.922-0.387
	c-4.479-1.876-8.525-4.056-12.027-6.48c-0.44-0.323-0.914-0.608-1.421-0.852c-0.662-0.32-1.351-0.553-2.051-0.7
	c-1.761-0.376-3.551-0.199-5.154,0.432c-0.864,0.339-1.682,0.814-2.417,1.419c-0.94,0.771-1.735,1.741-2.312,2.879
	c-0.169,0.331-0.315,0.669-0.439,1.012c-4.398,11.44-6.628,24.323-6.628,38.292c0,33.529,17.33,64.459,45.227,80.718
	c11.614,6.771,20.995,9.798,30.413,9.815c0.008,0,0.016,0,0.023,0s0.016,0,0.023,0c9.418-0.018,18.799-3.044,30.415-9.815
	C219.183,217.948,236.512,187.018,236.512,153.49z M228.343,292.661c-21.296-6.501-33.912-15.747-37.5-27.48
	c-1.452-4.753-6.48-7.428-11.238-5.975c-4.753,1.453-7.428,6.484-5.975,11.238c5.445,17.81,22.085,31.077,49.457,39.434
	c0.876,0.267,1.761,0.395,2.631,0.395c3.854,0,7.421-2.496,8.604-6.375C235.774,299.143,233.097,294.113,228.343,292.661z"/>
<g>
</g>
<g>
</g>
<g>
</g>
<g>
</g>
<g>
</g>
<g>
</g>
<g>
</g>
<g>
</g>
<g>
</g>
<g>
</g>
<g>
</g>
<g>
</g>
<g>
</g>
<g>
</g>
<g>
</g>
</svg>
